<svg xmlns="http://www.w3.org/2000/svg" xmlns:xlink="http://www.w3.org/1999/xlink" version="1.1" width="1000" height="1000" viewBox="0 0 1000 1000" xml:space="preserve"><g transform="matrix(7.1023 0 0 7.1023 500.0017 500.0017)" id="680389"><g style="" vector-effect="non-scaling-stroke"><g transform="matrix(1 0 0 1 -0.0132 -0.006)"><radialGradient id="SVGID_6" gradientUnits="userSpaceOnUse" gradientTransform="matrix(-1 -0.0043 -0.0071 1.6408 131.9857 -79.3452)" cx="68.8839" cy="124.2963" r="70.587" fx="68.8839" fy="124.2963"><stop offset="31.44%" style="stop-color:rgb(255,152,0);stop-opacity: 1"/><stop offset="66.16%" style="stop-color:rgb(255,109,0);stop-opacity: 1"/><stop offset="97.15%" style="stop-color:rgb(244,67,54);stop-opacity: 1"/></radialGradient><path style="stroke: none; stroke-width: 1; stroke-dasharray: none; stroke-linecap: butt; stroke-dashoffset: 0; stroke-linejoin: miter; stroke-miterlimit: 4; is-custom-font: none; font-file-url: none; fill: url(#SVGID_6); fill-rule: nonzero; opacity: 1;" transform=" translate(-63.9868, -63.9941)" d="m 35.56 40.73 c -0.57 6.08 -0.97 16.84 2.62 21.42 c 0 0 -1.69 -11.82 13.46 -26.65 c 6.1 -5.97 7.51 -14.09 5.38 -20.18 c -1.21 -3.45 -3.42 -6.3 -5.34 -8.29 c -1.12 -1.17 -0.26 -3.1 1.37 -3.03 c 9.86 0.44 25.84 3.18 32.63 20.22 c 2.98 7.48 3.2 15.21 1.78 23.07 c -0.9 5.02 -4.1 16.18 3.2 17.55 c 5.21 0.98 7.73 -3.16 8.86 -6.14 c 0.47 -1.24 2.1 -1.55 2.98 -0.56 c 8.8 10.01 9.55 21.8 7.73 31.95 c -3.52 19.62 -23.39 33.9 -43.13 33.9 c -24.66 0 -44.29 -14.11 -49.38 -39.65 c -2.05 -10.31 -1.01 -30.71 14.89 -45.11 c 1.18 -1.08 3.11 -0.12 2.95 1.5 z" stroke-linecap="round"/></g><g transform="matrix(1 0 0 1 0.5568 20.9917)"><radialGradient id="SVGID_7" gradientUnits="userSpaceOnUse" gradientTransform="matrix(-0.0101 0.9999 0.7525 0.0076 26.1538 -11.2668)" cx="64.9211" cy="54.0621" r="73.8599" fx="64.9211" fy="54.0621"><stop offset="21.41%" style="stop-color:rgb(255,241,118);stop-opacity: 1"/><stop offset="32.75%" style="stop-color:rgb(255,242,125);stop-opacity: 1"/><stop offset="48.68%" style="stop-color:rgb(255,244,143);stop-opacity: 1"/><stop offset="67.22%" style="stop-color:rgb(255,247,173);stop-opacity: 1"/><stop offset="79.31%" style="stop-color:rgb(255,249,196);stop-opacity: 1"/><stop offset="82.21000000000001%" style="stop-color:rgb(255,248,189);stop-opacity: 0.804"/><stop offset="86.27%" style="stop-color:rgb(255,246,171);stop-opacity: 0.529"/><stop offset="91.01%" style="stop-color:rgb(255,243,141);stop-opacity: 0.2088"/><stop offset="94.08999999999999%" style="stop-color:rgb(255,241,118);stop-opacity: 0"/></radialGradient><path style="stroke: none; stroke-width: 1; stroke-dasharray: none; stroke-linecap: butt; stroke-dashoffset: 0; stroke-linejoin: miter; stroke-miterlimit: 4; is-custom-font: none; font-file-url: none; fill: url(#SVGID_7); fill-rule: nonzero; opacity: 1;" transform=" translate(-64.5568, -84.9916)" d="m 76.11 77.42 c -9.09 -11.7 -5.02 -25.05 -2.79 -30.37 c 0.3 -0.7 -0.5 -1.36 -1.13 -0.93 c -3.91 2.66 -11.92 8.92 -15.65 17.73 c -5.05 11.91 -4.69 17.74 -1.7 24.86 c 1.8 4.29 -0.29 5.2 -1.34 5.36 c -1.02 0.16 -1.96 -0.52 -2.71 -1.23 c -2.15 -2.05 -3.7 -4.72 -4.44 -7.6 c -0.16 -0.62 -0.97 -0.79 -1.34 -0.28 c -2.8 3.87 -4.25 10.08 -4.32 14.47 c -0.22 13.57 10.99 24.57 24.55 24.57 c 17.09 0 29.54 -18.9 19.72 -34.7 c -2.85 -4.6 -5.53 -7.61 -8.85 -11.88 z" stroke-linecap="round"/></g></g></g><g transform="matrix(3.75 0 0 3.75 500 682.5455)" id="40222"><g style="" vector-effect="non-scaling-stroke"><g transform="matrix(1 0 0 1 -0.0012 -0.01)"><path style="stroke: none; stroke-width: 1; stroke-dasharray: none; stroke-linecap: butt; stroke-dashoffset: 0; stroke-linejoin: miter; stroke-miterlimit: 4; is-custom-font: none; font-file-url: none; fill: rgb(245,57,5); fill-rule: nonzero; opacity: 1;" transform=" translate(-63.9988, -63.99)" d="M 120.05 69.13 c -2.32 -2.7 -4.22 -5.93 -6.26 -8.88 c -2.36 -3.42 -5.21 -6.89 -5.67 -11.22 c -0.15 -1.39 0.17 -2.7 0.71 -3.94 c 1 -2.22 2.75 -4.24 4.01 -6.22 c 5.14 -8.22 9.31 -17.38 9.59 -27.22 c 0.09 -2.78 -0.59 -6.96 -3.01 -8.81 c -2.61 -1.99 -6.38 -1.63 -9.4 -1.05 c -7.35 1.42 -14.02 5.02 -20.76 8.1 c -2.6 1.19 -5.16 2.46 -7.7 3.75 c -5.47 -1.75 -11.37 -2.65 -17.21 -2.7 c -5.85 0.05 -11.72 0.96 -17.21 2.7 c -2.54 -1.29 -5.1 -2.56 -7.7 -3.75 C 32.72 6.8 26.05 3.2 18.71 1.78 c -3.01 -0.58 -6.8 -0.95 -9.41 1.05 c -2.42 1.85 -3.08 6.04 -3.02 8.81 c 0.22 7.48 2.7 14.65 6.13 21.22 c 1.77 3.36 3.77 6.61 5.91 9.75 c 1.37 2.01 1.53 2.25 0.92 4.4 c -0.4 1.41 -0.71 3.25 -1.25 4.64 c -0.79 2.07 -2.21 4.32 -3.5 6.15 c -2.31 3.23 -4.76 6.05 -7.39 8.94 c -1.44 1.57 -7.14 6.11 -6.57 8.18 c 0.66 2.38 7.93 2.87 9.84 2.96 c 0.74 1.99 -2.4 4.62 -3.41 6.17 c -1.35 2.08 -2.75 3.81 -2.22 6.42 c 3.26 0.39 5.79 -1.02 8.8 -2.03 c 1.48 2.93 -2.53 7.49 -0.93 11.11 c 1.88 4.19 5.2 0.49 7.71 -1 c 3.45 -2.03 5.29 -2.75 9.3 -2.78 c 2.06 -0.01 6.09 0.19 6.76 2.38 c 2.5 8.15 4.02 13.23 7.82 19.12 c 4.64 7.21 11.74 9.39 21.12 9.39 c 7.5 0 14.26 -2.41 19 -9.05 c 1.6 -2.25 5.65 -14.09 6.47 -16.99 c 2.21 -7.78 9.52 -5.7 14.91 -2.66 c 2.32 1.31 4.14 2.01 5.35 -0.88 c 1.24 -3.05 -2.17 -6.05 -1.22 -8.76 c 3.05 -0.78 5.79 4.11 9.24 2.14 c 2.88 -1.65 0.36 -5.14 -0.79 -6.89 c -1.57 -2.4 -2.58 -5.14 1.32 -4.18 c 1.91 0.47 5.25 3.62 7 1.91 C 130.22 77.77 121.97 71.37 120.05 69.13 z" stroke-linecap="round"/></g><g transform="matrix(1 0 0 1 -0.0231 44.2529)" clip-path="url(#CLIPPATH_8)"><clipPath id="CLIPPATH_8"><path transform="matrix(1 0 0 1 0.0219 -44.2628) translate(-63.9988, -63.99)" id="SVGID_2_" d="M 120.05 69.13 c -2.32 -2.7 -4.22 -5.93 -6.26 -8.88 c -2.36 -3.42 -5.21 -6.89 -5.67 -11.22 c -0.15 -1.39 0.17 -2.7 0.71 -3.94 c 1 -2.22 2.75 -4.24 4.01 -6.22 c 5.14 -8.22 9.31 -17.38 9.59 -27.22 c 0.09 -2.78 -0.59 -6.96 -3.01 -8.81 c -2.61 -1.99 -6.38 -1.63 -9.4 -1.05 c -7.35 1.42 -14.02 5.02 -20.76 8.1 c -2.6 1.19 -5.16 2.46 -7.7 3.75 c -5.47 -1.75 -11.37 -2.65 -17.21 -2.7 c -5.85 0.05 -11.72 0.96 -17.21 2.7 c -2.54 -1.29 -5.1 -2.56 -7.7 -3.75 C 32.72 6.8 26.05 3.2 18.71 1.78 c -3.01 -0.58 -6.8 -0.95 -9.41 1.05 c -2.42 1.85 -3.08 6.04 -3.02 8.81 c 0.22 7.48 2.7 14.65 6.13 21.22 c 1.77 3.36 3.77 6.61 5.91 9.75 c 1.37 2.01 1.53 2.25 0.92 4.4 c -0.4 1.41 -0.71 3.25 -1.25 4.64 c -0.79 2.07 -2.21 4.32 -3.5 6.15 c -2.31 3.23 -4.76 6.05 -7.39 8.94 c -1.44 1.57 -7.14 6.11 -6.57 8.18 c 0.66 2.38 7.93 2.87 9.84 2.96 c 0.74 1.99 -2.4 4.62 -3.41 6.17 c -1.35 2.08 -2.75 3.81 -2.22 6.42 c 3.26 0.39 5.79 -1.02 8.8 -2.03 c 1.48 2.93 -2.53 7.49 -0.93 11.11 c 1.88 4.19 5.2 0.49 7.71 -1 c 3.45 -2.03 5.29 -2.75 9.3 -2.78 c 2.06 -0.01 6.09 0.19 6.76 2.38 c 2.5 8.15 4.02 13.23 7.82 19.12 c 4.64 7.21 11.74 9.39 21.12 9.39 c 7.5 0 14.26 -2.41 19 -9.05 c 1.6 -2.25 5.65 -14.09 6.47 -16.99 c 2.21 -7.78 9.52 -5.7 14.91 -2.66 c 2.32 1.31 4.14 2.01 5.35 -0.88 c 1.24 -3.05 -2.17 -6.05 -1.22 -8.76 c 3.05 -0.78 5.79 4.11 9.24 2.14 c 2.88 -1.65 0.36 -5.14 -0.79 -6.89 c -1.57 -2.4 -2.58 -5.14 1.32 -4.18 c 1.91 0.47 5.25 3.62 7 1.91 C 130.22 77.77 121.97 71.37 120.05 69.13 z" stroke-linecap="round"/></clipPath><path style="stroke: none; stroke-width: 1; stroke-dasharray: none; stroke-linecap: butt; stroke-dashoffset: 0; stroke-linejoin: miter; stroke-miterlimit: 4; is-custom-font: none; font-file-url: none; fill: rgb(255,255,255); fill-rule: nonzero; opacity: 1;" transform=" translate(-63.9769, -108.2529)" d="M 99.92 88.97 c 0.29 -0.61 -0.07 -1.44 -0.87 -2.01 c -1.21 -0.86 -2.62 -1.37 -3.97 -1.91 c -1.96 -0.78 -4.06 -1.24 -6.16 -1.24 c -5.62 0 -11.16 3.3 -13.83 8.26 c -0.85 1.58 -1.71 3.62 -1.96 5.41 c -0.07 0.44 -0.18 0.88 -0.24 1.33 c -0.05 0.43 -0.09 0.86 -0.14 1.29 c -0.1 0.78 -0.25 1.51 -0.46 2.27 c -0.17 0.64 -0.33 1.21 -0.82 1.69 c -0.57 0.57 -1.44 1.15 -2.24 1.25 c -0.43 0.05 -0.88 0.02 -1.32 0.04 c -0.64 0.04 -1.29 -0.02 -1.94 -0.02 c -2.14 0 -4.27 0.36 -6.33 -0.4 c -0.23 -0.08 -0.48 -0.17 -0.69 -0.33 c -0.19 -0.15 -0.33 -0.33 -0.52 -0.52 c -0.89 -0.92 -1.16 -2.37 -1.34 -3.61 c -0.57 -3.89 -1.77 -7.87 -4.38 -10.89 c -2.83 -3.27 -6.95 -5.51 -11.28 -5.84 c -2.33 -0.18 -5.36 -0.03 -7.57 0.8 c -1.82 0.69 -5.15 1.79 -5.84 3.86 c -0.77 2.38 3.88 1.01 4.79 2.29 c 0.84 1.2 0.41 3.75 0.42 5.21 c 0.01 2.39 -0.74 4.7 -1.26 7.03 c -0.37 1.63 -0.39 3.36 -0.58 5.01 c -0.25 2.32 -0.25 4.83 -0.25 7.16 c 0 1.98 0.13 3.98 0.88 5.84 c 0.54 1.32 1.42 2.49 2.04 3.79 c 0.42 0.88 0.93 1.6 1.67 2.26 c 1.26 1.12 3.28 1.09 4.74 1.87 c 4.12 2.19 8.76 3.08 13.39 3.5 c 3.67 0.33 7.38 0.46 11.07 0.46 c 1.96 0 3.91 0.08 5.85 -0.15 c 1.9 -0.23 3.76 -0.66 5.66 -0.94 c 3.07 -0.44 5.39 -1.05 7.88 -2.92 c 3.26 -2.46 5.85 -5.89 7.24 -9.8 c 1.31 -3.69 1.79 -7.74 1.26 -11.68 c -0.44 -3.26 -1.61 -6.19 -1.42 -9.56 c 0.07 -1.29 0.35 -2.49 0.56 -3.75 c 0.21 -1.16 0.78 -2.2 1.64 -3.02 c 0.54 -0.51 1.56 -0.92 2.24 -1.09 c 0.99 -0.25 2.07 0.04 3.07 -0.23 C 99.44 89.54 99.76 89.28 99.92 88.97 z" stroke-linecap="round"/></g><g transform="matrix(1 0 0 1 -0.0047 -0.0124)" clip-path="url(#CLIPPATH_9)"><clipPath id="CLIPPATH_9"><path transform="matrix(1 0 0 1 0.0035 0.0024) translate(-63.9988, -63.99)" id="SVGID_2_" d="M 120.05 69.13 c -2.32 -2.7 -4.22 -5.93 -6.26 -8.88 c -2.36 -3.42 -5.21 -6.89 -5.67 -11.22 c -0.15 -1.39 0.17 -2.7 0.71 -3.94 c 1 -2.22 2.75 -4.24 4.01 -6.22 c 5.14 -8.22 9.31 -17.38 9.59 -27.22 c 0.09 -2.78 -0.59 -6.96 -3.01 -8.81 c -2.61 -1.99 -6.38 -1.63 -9.4 -1.05 c -7.35 1.42 -14.02 5.02 -20.76 8.1 c -2.6 1.19 -5.16 2.46 -7.7 3.75 c -5.47 -1.75 -11.37 -2.65 -17.21 -2.7 c -5.85 0.05 -11.72 0.96 -17.21 2.7 c -2.54 -1.29 -5.1 -2.56 -7.7 -3.75 C 32.72 6.8 26.05 3.2 18.71 1.78 c -3.01 -0.58 -6.8 -0.95 -9.41 1.05 c -2.42 1.85 -3.08 6.04 -3.02 8.81 c 0.22 7.48 2.7 14.65 6.13 21.22 c 1.77 3.36 3.77 6.61 5.91 9.75 c 1.37 2.01 1.53 2.25 0.92 4.4 c -0.4 1.41 -0.71 3.25 -1.25 4.64 c -0.79 2.07 -2.21 4.32 -3.5 6.15 c -2.31 3.23 -4.76 6.05 -7.39 8.94 c -1.44 1.57 -7.14 6.11 -6.57 8.18 c 0.66 2.38 7.93 2.87 9.84 2.96 c 0.74 1.99 -2.4 4.62 -3.41 6.17 c -1.35 2.08 -2.75 3.81 -2.22 6.42 c 3.26 0.39 5.79 -1.02 8.8 -2.03 c 1.48 2.93 -2.53 7.49 -0.93 11.11 c 1.88 4.19 5.2 0.49 7.71 -1 c 3.45 -2.03 5.29 -2.75 9.3 -2.78 c 2.06 -0.01 6.09 0.19 6.76 2.38 c 2.5 8.15 4.02 13.23 7.82 19.12 c 4.64 7.21 11.74 9.39 21.12 9.39 c 7.5 0 14.26 -2.41 19 -9.05 c 1.6 -2.25 5.65 -14.09 6.47 -16.99 c 2.21 -7.78 9.52 -5.7 14.91 -2.66 c 2.32 1.31 4.14 2.01 5.35 -0.88 c 1.24 -3.05 -2.17 -6.05 -1.22 -8.76 c 3.05 -0.78 5.79 4.11 9.24 2.14 c 2.88 -1.65 0.36 -5.14 -0.79 -6.89 c -1.57 -2.4 -2.58 -5.14 1.32 -4.18 c 1.91 0.47 5.25 3.62 7 1.91 C 130.22 77.77 121.97 71.37 120.05 69.13 z" stroke-linecap="round"/></clipPath><path style="stroke: none; stroke-width: 1; stroke-dasharray: none; stroke-linecap: butt; stroke-dashoffset: 0; stroke-linejoin: miter; stroke-miterlimit: 4; is-custom-font: none; font-file-url: none; fill: rgb(245,57,5); fill-rule: nonzero; opacity: 1;" transform=" translate(-63.9953, -63.9877)" d="M 65.3 132.43 c -7.82 0 -19.02 -1.25 -25.96 -12.03 c -3.92 -6.09 -5.64 -11.3 -7.94 -18.78 c -0.41 -0.05 -0.95 -0.08 -1.66 -0.08 c -2.77 0.02 -3.61 0.28 -6.51 1.98 c -0.35 0.21 -0.71 0.48 -1.11 0.76 c -1.75 1.25 -4.14 2.97 -7.21 2.97 c -1.56 0 -5.42 -0.52 -7.58 -5.34 c -0.87 -1.96 -0.99 -3.89 -0.81 -5.63 c -0.8 0.04 -1.63 0.01 -2.48 -0.09 c -2.47 -0.29 -4.48 -2.14 -4.96 -4.58 c -0.85 -4.19 0.8 -7.24 2.18 -9.39 c -3.49 -1.18 -5.53 -3.08 -6.28 -5.78 c -1.36 -4.96 2.89 -8.93 6.65 -12.43 c 0.51 -0.48 0.96 -0.88 1.22 -1.17 c 2.26 -2.48 4.68 -5.22 6.95 -8.41 c 1.33 -1.86 2.34 -3.59 2.83 -4.87 c 0.25 -0.66 0.42 -1.47 0.6 -2.24 c 0.12 -0.5 0.23 -1 0.36 -1.46 c -0.01 -0.01 -0.01 -0.02 -0.03 -0.03 c -2.37 -3.45 -4.47 -6.92 -6.25 -10.31 c -4.28 -8.18 -6.57 -16.16 -6.79 -23.72 C 0.49 9.6 0.7 2.16 5.82 -1.75 c 3.38 -2.6 7.6 -3.36 13.99 -2.13 C 26.54 -2.57 32.53 0.26 38.32 3 l 3.55 1.66 c 1.97 0.9 3.92 1.85 5.85 2.82 C 53.05 6 58.63 5.23 64.32 5.18 c 5.7 0.05 11.39 0.84 16.71 2.29 c 1.93 -0.97 3.88 -1.92 5.85 -2.82 l 3.56 -1.66 c 5.78 -2.73 11.76 -5.56 18.5 -6.86 c 6.37 -1.23 10.59 -0.48 13.99 2.13 c 5.15 3.94 5.33 11.38 5.26 13.56 c -0.26 9.53 -3.59 19.1 -10.47 30.09 c -0.5 0.8 -1.06 1.58 -1.62 2.37 c -0.83 1.15 -1.6 2.24 -2.03 3.18 c -0.16 0.37 -0.25 0.73 -0.22 0.94 c 0.23 2.28 1.91 4.65 3.68 7.15 l 1.01 1.43 c 0.62 0.9 1.22 1.82 1.83 2.75 c 1.36 2.07 2.65 4.02 4.05 5.64 c 0.29 0.34 0.75 0.77 1.27 1.28 c 3.2 3.11 7.57 7.36 7.58 12.55 c 0 2.35 -0.94 4.57 -2.65 6.24 c -1.22 1.19 -2.8 1.93 -4.51 2.1 c 0.08 0.87 0.03 1.77 -0.19 2.7 c -0.53 2.2 -1.95 4.06 -4.02 5.23 c -1.54 0.88 -3.25 1.28 -4.9 1.22 c -0.09 0.83 -0.29 1.69 -0.65 2.58 c -2.08 5.05 -6.03 5.59 -7.64 5.59 c -2.23 0 -4.14 -0.9 -5.87 -1.88 c -2.2 -1.23 -4.29 -1.98 -5.58 -1.98 c -0.42 0.03 -0.69 0.29 -0.95 1.21 c -0.34 1.18 -4.79 15.18 -7.32 18.75 C 83.57 128.58 75.6 132.43 65.3 132.43 z M 29.57 90.03 c 8.56 0 11.41 3.51 12.3 6.45 c 2.44 7.94 3.85 12.54 7.16 17.69 c 3.09 4.79 7.8 6.75 16.28 6.75 c 6.54 0 11.09 -2.11 14.31 -6.63 c 1.07 -1.73 4.72 -12.02 5.62 -15.22 c 2.35 -8.25 9.64 -11.64 18.77 -8.23 c -0.2 -1.33 -0.18 -2.83 0.38 -4.41 c 0.63 -1.82 2.14 -3.19 4.01 -3.67 c 1 -0.26 2.07 -0.33 3.05 -0.21 c -0.47 -1.7 -0.53 -3.64 0.49 -5.54 c 0.93 -1.72 2.54 -2.9 4.48 -3.35 c -0.28 -0.29 -0.53 -0.56 -0.72 -0.79 c -1.87 -2.17 -3.43 -4.53 -4.93 -6.81 c -0.56 -0.86 -1.12 -1.71 -1.7 -2.54 l -0.92 -1.31 c -2.31 -3.26 -5.19 -7.33 -5.73 -12.58 c -0.25 -2.24 0.13 -4.49 1.16 -6.84 c 0.92 -2.04 2.11 -3.71 3.17 -5.18 c 0.43 -0.61 0.87 -1.21 1.25 -1.81 c 5.72 -9.16 8.49 -16.89 8.7 -24.31 c 0.06 -2.07 -0.5 -3.77 -0.83 -4.15 l 0 0 c 0 0 -1.63 -0.5 -4.73 0.1 c -5.31 1.03 -10.39 3.43 -15.77 5.97 l -3.68 1.72 c -2.53 1.16 -5.01 2.4 -7.48 3.65 c -1.35 0.69 -2.92 0.81 -4.36 0.35 c -4.86 -1.55 -10.22 -2.39 -15.52 -2.43 c -5.19 0.04 -10.55 0.88 -15.41 2.43 c -1.44 0.45 -3.01 0.33 -4.36 -0.35 c -2.46 -1.25 -4.96 -2.49 -7.48 -3.65 l -3.66 -1.71 c -5.38 -2.54 -10.47 -4.94 -15.78 -5.97 c -2.71 -0.52 -4.43 -0.32 -4.8 -0.04 C 12.56 7.71 12 9.42 12.05 11.5 c 0.18 5.85 1.97 11.98 5.48 18.69 c 1.56 2.98 3.44 6.06 5.56 9.16 c 2.15 3.17 2.86 5.14 1.7 9.22 c -0.12 0.42 -0.22 0.9 -0.33 1.39 c -0.31 1.29 -0.65 2.64 -1.08 3.76 c -0.86 2.22 -2.26 4.71 -4.19 7.42 c -2.65 3.7 -5.45 6.87 -7.84 9.48 c -0.33 0.37 -0.86 0.87 -1.49 1.46 c 0.25 0.01 0.51 0.03 0.76 0.04 c 2.32 0.11 4.34 1.59 5.14 3.76 c 0.98 2.67 0.32 5.06 -0.75 7 c 1.54 0.41 2.89 1.46 3.65 2.97 c 1.18 2.34 1.1 4.64 0.67 6.65 C 22.48 90.86 25.18 90.06 29.57 90.03 z" stroke-linecap="round"/></g><g transform="matrix(1 0 0 1 -21.0532 -3.4149)"><path style="stroke: none; stroke-width: 1; stroke-dasharray: none; stroke-linecap: butt; stroke-dashoffset: 0; stroke-linejoin: miter; stroke-miterlimit: 4; is-custom-font: none; font-file-url: none; fill: rgb(47,47,47); fill-rule: nonzero; opacity: 1;" transform=" translate(-42.9467, -60.5851)" d="M 47.92 65.87 c -2.48 2.32 -6.72 1.85 -9.46 -1.09 c -2.73 -2.92 -2.96 -7.18 -0.49 -9.49 c 2.47 -2.32 6.72 -1.82 9.46 1.1 C 50.17 59.3 50.39 63.55 47.92 65.87 z" stroke-linecap="round"/></g><g transform="matrix(1 0 0 1 0.4402 40.5653)"><path style="stroke: none; stroke-width: 1; stroke-dasharray: none; stroke-linecap: butt; stroke-dashoffset: 0; stroke-linejoin: miter; stroke-miterlimit: 4; is-custom-font: none; font-file-url: none; fill: rgb(47,47,47); fill-rule: nonzero; opacity: 1;" transform=" translate(-64.4402, -104.5653)" d="M 77.93 112.42 c -0.24 0.62 -1.13 1.04 -1.67 1.38 c -2.57 1.64 -7.21 1.24 -9.88 0.02 c -0.72 -0.33 -1.17 -0.63 -2.01 -0.54 c -0.69 0.06 -1.51 0.54 -2.17 0.75 c -2.31 0.75 -4.3 1.28 -6.73 0.96 c -0.74 -0.1 -1.46 -0.24 -2.15 -0.5 c -0.76 -0.3 -1.7 -0.87 -2.15 -1.51 c -0.42 -0.57 -0.51 -1.55 0.24 -1.9 c 0.54 -0.27 1.1 -0.19 1.64 0 c 0.65 0.22 1.16 0.69 1.82 0.91 c 1.67 0.58 4.02 0.45 5.66 -0.22 c 0.63 -0.26 1.41 -0.41 1.83 -0.98 c 0.62 -0.84 0.74 -1.87 0.74 -2.88 c -1.64 0 -3.21 -0.22 -4.74 -0.77 c -3.98 -1.42 -5.09 -5.03 -3.5 -8.37 c 0.24 -0.5 0.53 -0.97 0.84 -1.39 c 1.71 -2.19 4.49 -3.18 7.69 -3.32 c 3.7 -0.17 8.55 1.16 10.48 4.33 c 1.26 2.07 0.68 5.24 -0.92 7.04 c -1.62 1.81 -4.62 2.2 -7.23 2.38 c 0.03 0.85 0.14 1.7 0.54 2.39 c 0.3 0.53 1 0.87 1.46 1.24 c 0.42 0.32 0.82 0.48 1.32 0.58 c 1.33 0.26 2.74 0.38 4.09 0.22 c 1.35 -0.17 2.26 -0.83 3.49 -1.3 C 77.69 110.52 78.28 111.55 77.93 112.42 z" stroke-linecap="round"/></g><g transform="matrix(1 0 0 1 20.8287 -3.4149)"><path style="stroke: none; stroke-width: 1; stroke-dasharray: none; stroke-linecap: butt; stroke-dashoffset: 0; stroke-linejoin: miter; stroke-miterlimit: 4; is-custom-font: none; font-file-url: none; fill: rgb(47,47,47); fill-rule: nonzero; opacity: 1;" transform=" translate(-84.8287, -60.5851)" d="M 89.32 64.78 c -2.76 2.94 -6.99 3.41 -9.47 1.09 c -2.46 -2.31 -2.26 -6.56 0.49 -9.48 c 2.74 -2.92 6.99 -3.42 9.45 -1.1 C 92.28 57.59 92.06 61.85 89.32 64.78 z" stroke-linecap="round"/></g><g transform="matrix(1 0 0 1 -18.42 -12.47)"><polygon style="stroke: none; stroke-width: 1; stroke-dasharray: none; stroke-linecap: butt; stroke-dashoffset: 0; stroke-linejoin: miter; stroke-miterlimit: 4; is-custom-font: none; font-file-url: none; fill: rgb(245,57,5); fill-rule: nonzero; opacity: 1;" points="-11.11,2.04 6.73,10.17 11.11,-3.28 -1.09,-10.17 "/></g><g transform="matrix(1 0 0 1 17.195 -12.47)"><polygon style="stroke: none; stroke-width: 1; stroke-dasharray: none; stroke-linecap: butt; stroke-dashoffset: 0; stroke-linejoin: miter; stroke-miterlimit: 4; is-custom-font: none; font-file-url: none; fill: rgb(245,57,5); fill-rule: nonzero; opacity: 1;" points="11.105,2.04 -6.725,10.17 -11.105,-3.28 1.095,-10.17 "/></g><g transform="matrix(1 0 0 1 -35.4077 -39.6222)"><path style="stroke: none; stroke-width: 1; stroke-dasharray: none; stroke-linecap: butt; stroke-dashoffset: 0; stroke-linejoin: miter; stroke-miterlimit: 4; is-custom-font: none; font-file-url: none; fill: rgb(255,255,255); fill-rule: nonzero; opacity: 1;" transform=" translate(-28.5923, -24.3778)" d="M 35.86 24.51 c -3.28 2.41 -5.65 5.84 -7.26 9.55 c -0.17 0.4 -0.33 0.92 -0.7 1.18 l -0.11 0.06 c -2.64 1.3 -8.57 -12.69 -9.33 -14.62 c -0.78 -1.95 -2.18 -4.43 -0.41 -6.33 c 1.57 -1.69 4.07 -0.8 5.95 -0.23 c 4.09 1.23 7.85 2.84 11.7 4.63 c 0.68 0.32 4.35 1.88 4.29 2.76 C 39.91 22.48 36.64 23.94 35.86 24.51 z" stroke-linecap="round"/></g><g transform="matrix(1 0 0 1 36.1678 -39.6235)"><path style="stroke: none; stroke-width: 1; stroke-dasharray: none; stroke-linecap: butt; stroke-dashoffset: 0; stroke-linejoin: miter; stroke-miterlimit: 4; is-custom-font: none; font-file-url: none; fill: rgb(255,255,255); fill-rule: nonzero; opacity: 1;" transform=" translate(-100.1678, -24.3765)" d="M 100.96 35.3 l -0.11 -0.06 c -0.37 -0.26 -0.53 -0.78 -0.7 -1.18 c -1.61 -3.72 -3.98 -7.14 -7.27 -9.55 c -0.78 -0.57 -4.04 -2.03 -4.1 -3.01 c -0.07 -0.88 3.6 -2.44 4.27 -2.76 c 3.85 -1.79 7.62 -3.4 11.71 -4.63 c 1.87 -0.56 4.37 -1.45 5.94 0.23 c 1.77 1.9 0.37 4.38 -0.4 6.33 C 109.53 22.61 103.61 36.6 100.96 35.3 z" stroke-linecap="round"/></g></g></g></svg>