<svg version="1.2" xmlns="http://www.w3.org/2000/svg" viewBox="0 0 544 608" width="544" height="608">
	<path fill="#000000" d="m101.2 441.8c-43.4-43.4-70.2-103.4-70.2-169.8 0-132.7 107.3-240 240-240 132.7 0 240 107.3 240 240 0 132.7-107.3 240-240 240v64c0 0-148.2-112.7-169.8-134.2z"/>
	<path fill="#FFFFFF" d="m238.5 341.5l-32-144c-15-90 143-90 128 0l-32 144zm0 12h64v38c0 30-64 30-64 0z"/>
	<path stroke-width="16" stroke="#FFFFFF" stroke-linecap="round" stroke-linejoin="round" d="m148.2 151.6l20.8 12m-32.8 48h24m-12 60l20.8-12m205.2-96l20.8-12m-12.8 60h24m-32 48l20.8 12"/>
</svg>