<svg version="1.2" xmlns="http://www.w3.org/2000/svg" viewBox="0 0 512 512" width="512" height="512">
	<path fill="#000000" d="m256 496c-132.7 0-240-107.3-240-240 0-132.7 107.3-240 240-240 132.7 0 240 107.3 240 240 0 66.4-26.8 126.4-70.2 169.8 70.2 70.2 70.2 70.2 70.2 70.2 0 0-196.3 0-240 0z"/>
	<g fill="#FFFFFF">
		<path d="m223.5 325.5l-32-144c-15-90 143-90 128 0l-32 144z"/>
		<path d="m223.5 337.5h64v38c0 30-64 30-64 0z"/>
	</g>
	<g stroke-width="24" stroke="#FFFFFF" stroke-linecap="round" stroke-linejoin="round">
		<path d="m132.4 159.6l20.8 12"/>
		<path d="m120.4 219.6h24"/>
		<path d="m132.4 279.6l20.8-12"/>
		<path d="m359.4 171.6l20.8-12"/>
		<path d="m367.4 219.6h24"/>
		<path d="m359.4 267.6l20.8 12"/>
	</g>
</svg>