<svg version="1.2" xmlns="http://www.w3.org/2000/svg" viewBox="0 0 512 512" width="512" height="512">
	<path fill="#000000" d="m256 496c-132.7 0-240-107.3-240-240 0-132.7 107.3-240 240-240 132.7 0 240 107.3 240 240 0 66.4-26.8 126.4-70.2 169.8 70.2 70.2 70.2 70.2 70.2 70.2 0 0-196.3 0-240 0z"/>
	<path fill="#FFFFFF" d="m229.6 338.4c0-1.8 1.4-3.2 3.2-3.2h46.4c1.8 0 3.2 1.4 3.2 3.2 0 1.8-1.4 3.2-3.2 3.2h-46.4c-1.8 0-3.2-1.4-3.2-3.2zm0 12.8c0-1.8 1.4-3.2 3.2-3.2h46.4c1.8 0 3.2 1.4 3.2 3.2 0 1.8-1.4 3.2-3.2 3.2h-46.4c-1.8 0-3.2-1.4-3.2-3.2zm9.6 16h-6.4c-1.8 0-3.2-1.4-3.2-3.2 0-1.8 1.4-3.2 3.2-3.2h46.4c1.8 0 3.2 1.4 3.2 3.2 0 1.8-1.4 3.2-3.2 3.2h-6.4c0 0 0 14.4-16.8 14.4-16.8 0-16.8-14.4-16.8-14.4zm-55.2-132.8c0-39.8 32.2-72 72-72 39.8 0 72 32.2 72 72 0 36.6-45.6 58.4-45.6 84.8 0 9.6-9.6 9.6-9.6 9.6h-33.6c0 0-9.6 0-9.6-9.6 0-26.4-45.6-39.2-45.6-84.8z"/>
</svg>