<svg version="1.2" xmlns="http://www.w3.org/2000/svg" viewBox="0 0 1439 463" width="1439" height="463">
	<path fill="#000000" d="m707.2 303.2c-20.5 25-50.7 41.4-85 41.4-64 0-116.7-54.8-116.7-117.7 0-64 52.7-116.8 116.7-116.8 34.3 0 64.5 15.9 85 40.5v-36.9h34.3v327.7h-34.3zm-2-76.4c0-45.5-39.5-82.9-84-82.9-45.6 0-79.9 37.4-79.9 82.9 0 44.6 34.3 84 79.9 84 44.5 0 84-39.4 84-84zm300.5 112.2h-34.3v-27.2c-17.9 19.5-43 30.7-73.7 30.7-64.5 0-92.2-28.6-92.2-100.3v-128.5h34.3v128.5c0 44.5 20.5 66.6 57.9 66.6 45.5 0 73.7-25.6 73.7-75.3v-119.8h34.3zm66.6-295.5c0-12.3 10.7-23.5 24.5-23.5 12.8 0 24.1 11.2 24.1 23.5 0 13.8-11.3 24.6-24.1 24.6-13.8 0-24.5-10.8-24.5-24.6zm7.1 70.2h35.9v225.2h-35.9zm339 113c0 63-52.8 117.8-116.8 117.8-34.3 0-64.5-16.4-85-41.5v138.3h-34.3v-327.7h34.3v36.8c20.5-24.5 50.7-40.4 85-40.4 64 0 116.8 52.7 116.8 116.7zm-35.9 0c0-45.5-34.3-82.9-79.8-82.9-44.6 0-84 37.4-84 82.9 0 44.6 39.4 84 84 84 45.5 0 79.8-39.4 79.8-84z"/>
	<path fill="#000000" d="m169 385.5c-92.3-15.6-157.2-99.3-149.3-192.5 7.8-93.3 85.7-165 179.3-165 93.6 0 171.6 71.7 179.3 165 7.9 93.2-57.1 176.9-149.3 192.5 1.3 5.5 3.3 10.7 6 15.6 2.7 4.9 6.1 9.4 10.1 13.4 3.9 3.9 8.4 7.3 13.3 10 4.9 2.8 10.1 4.8 15.6 6-9.9 2.9-20.3 4.1-30.6 3.4-10.3-0.6-20.4-3-29.9-7.1-9.5-4.1-18.3-9.7-25.8-16.8-7.6-7-13.9-15.3-18.7-24.5z"/>
	<path fill="#ffffff" d="m173.4 263.6l-25.6-115.2c-12-72 114.4-72 102.4 0l-25.6 115.2zm0 9.6h51.2v30.4c0 24-51.2 24-51.2 0z"/>
	<g stroke="#000000" stroke-width="32" stroke-linecap="round" stroke-linejoin="round">
		<path d="m100.5 130.9l16.6 9.5"/>
		<path d="m90.8 178.9h19.2"/>
		<path d="m100.5 226.9l16.6-9.6"/>
		<path d="m281.3 140.5l16.6-9.6"/>
		<path d="m287.7 178.9h19.1"/>
		<path d="m281.3 217.3l16.6 9.6"/>
	</g>
</svg>