<svg version="1.2" xmlns="http://www.w3.org/2000/svg" viewBox="0 0 751 844" width="751" height="844">
	<path fill="#000000" d="m315 730c-184.5-31.2-314.4-198.6-298.7-385.1 15.6-186.5 171.5-329.9 358.7-329.9 187.2 0 343.1 143.4 358.7 329.9 15.7 186.5-114.2 353.9-298.7 385.1 2.5 10.9 6.5 21.4 12 31.2 5.4 9.8 12.2 18.8 20.1 26.7 7.9 7.9 16.9 14.7 26.7 20.1 9.8 5.5 20.3 9.5 31.2 12-19.9 5.8-40.6 8.1-61.2 6.8-20.6-1.3-40.9-6.1-59.9-14.2-19-8.2-36.5-19.5-51.6-33.6-15.2-14.1-27.8-30.6-37.3-49z"/>
	<path fill="#FFFFFF" d="m323.8 486.2l-51.2-230.4c-24-144 228.8-144 204.8 0l-51.2 230.4zm0 19.2h102.4v60.8c0 48-102.4 48-102.4 0z"/>
	<g stroke-width="32" stroke="#FFFFFF" stroke-linecap="round" stroke-linejoin="round">
		<path d="m177.9 220.7l33.3 19.2"/>
		<path d="m158.7 316.7h38.4"/>
		<path d="m177.9 412.7l33.3-19.2"/>
		<path d="m539.5 239.9l33.3-19.2"/>
		<path d="m552.3 316.7h38.4"/>
		<path d="m539.5 393.5l33.3 19.2"/>
	</g>
</svg>