<svg version="1.2" xmlns="http://www.w3.org/2000/svg" viewBox="0 0 568 668" width="568" height="668">
	<g fill="#000000">
		<path d="m104 284c0-99.5 80.5-180 180-180 99.5 0 180 80.5 180 180 0 114-114 146-114 212 0 24 0 24 0 24h-132c0 0 0 0 0-24 0-66-114-98-114-212zm246 326c0 8.8-7.2 16-16 16h-24c0 0 0 26-26 26-26 0-26-26-26-26h-24c-8.8 0-16-7.2-16-16v-74h132z"/>
		<path stroke-width="16" stroke="#000000" stroke-linecap="round" stroke-linejoin="round" d="m24 284q0-4 0.1-8h48q-0.1 4-0.1 8 0 4 0.1 8h-48q-0.1-4-0.1-8zm260-260q4 0 8 0.1v48q-4-0.1-8-0.1-4 0-8 0.1v-48q4-0.1 8-0.1zm260 260q0 4-0.1 8h-48q0.1-4 0.1-8 0-4-0.1-8h48q0.1 4 0.1 8zm-449.5-178.2q5.5-5.8 11.3-11.3l34 34q-5.9 5.4-11.3 11.3zm367.6-11.3q5.9 5.5 11.4 11.3l-34 34q-5.5-5.9-11.3-11.3z"/>
	</g>
</svg>