<svg version="1.2" xmlns="http://www.w3.org/2000/svg" viewBox="0 0 568 642" width="568" height="642">
	<g fill="#000000">
		<path d="m104 284c0-99.5 80.5-180 180-180 99.5 0 180 80.5 180 180 0 114-114 146-114 212 0 24 0 24 0 24h-132c0 0 0 0 0-24 0-66-114-98-114-212z"/>
		<path d="m350 536v74c0 8.8-7.2 16-16 16h-100c-8.8 0-16-7.2-16-16v-74"/>
		<path stroke-width="16" stroke="#000000" stroke-linecap="round" stroke-linejoin="round" d="m19 284q0-4 0.1-8h53q-0.1 4-0.1 8 0 4 0.1 8h-53q-0.1-4-0.1-8zm265-265q4 0 8 0.1v53q-4-0.1-8-0.1-4 0-8 0.1v-53q4-0.1 8-0.1zm265 265q0 4-0.1 8h-53q0.1-4 0.1-8 0-4-0.1-8h53q0.1 4 0.1 8zm-458-181.7q5.5-5.8 11.3-11.3l37.5 37.5q-5.9 5.4-11.3 11.3zm374.7-11.3q5.9 5.5 11.3 11.3l-37.5 37.5q-5.4-5.9-11.3-11.3z"/>
	</g>
</svg>