<svg version="1.2" xmlns="http://www.w3.org/2000/svg" viewBox="0 0 568 668" width="568" height="668">
	<g fill="#000000">
		<path d="m218 544c0-4.4 3.6-8 8-8h116c4.4 0 8 3.6 8 8 0 4.4-3.6 8-8 8h-116c-4.4 0-8-3.6-8-8zm0 32c0-4.4 3.6-8 8-8h116c4.4 0 8 3.6 8 8 0 4.4-3.6 8-8 8h-116c-4.4 0-8-3.6-8-8zm24 40h-16c-4.4 0-8-3.6-8-8 0-4.4 3.6-8 8-8h116c4.4 0 8 3.6 8 8 0 4.4-3.6 8-8 8h-16c0 0 0 36-42 36-42 0-42-36-42-36zm-138-332c0-99.5 80.5-180 180-180 99.5 0 180 80.5 180 180 0 114-114 146-114 212 0 24-24 24-24 24h-84c0 0-24 0-24-24 0-66-114-98-114-212z"/>
		<path stroke-width="16" stroke="#000000" stroke-linecap="round" stroke-linejoin="round" d="m496 292v-16h48v16zm-424-16v16h-48v-16zm220-204h-16v-48h16zm-152.2 57.4l-11.4 11.2-34.1-34.9 11.4-11.1zm299.8 11.2l-11.3-11.3 33.9-34 11.4 11.3z"/>
	</g>
</svg>