<svg version="1.2" xmlns="http://www.w3.org/2000/svg" viewBox="0 0 588 678" width="588" height="678">
	<g fill="#000000">
		<path d="m228 554c0-4.4 3.6-8 8-8h116c4.4 0 8 3.6 8 8 0 4.4-3.6 8-8 8h-116c-4.4 0-8-3.6-8-8zm0 32c0-4.4 3.6-8 8-8h116c4.4 0 8 3.6 8 8 0 4.4-3.6 8-8 8h-116c-4.4 0-8-3.6-8-8zm24 40h-16c-4.4 0-8-3.6-8-8 0-4.4 3.6-8 8-8h116c4.4 0 8 3.6 8 8 0 4.4-3.6 8-8 8h-16c0 0 0 36-42 36-42 0-42-36-42-36zm-138-332c0-99.5 80.5-180 180-180 99.5 0 180 80.5 180 180 0 114-114 146-114 212 0 24-24 24-24 24h-84c0 0-24 0-24-24 0-66-114-98-114-212z"/>
		<path stroke-width="16" stroke="#000000" stroke-linecap="round" stroke-linejoin="round" d="m24 294q0-4 0.1-8h54q-0.1 4-0.1 8 0 4 0.1 8h-54q-0.1-4-0.1-8zm270-270q4 0 8 0.1v54q-4-0.1-8-0.1-4 0-8 0.1v-54q4-0.1 8-0.1zm270 270q0 4-0.1 8h-54q0.1-4 0.1-8 0-4-0.1-8h54q0.1 4 0.1 8zm-466.6-185.3q5.5-5.8 11.3-11.3l38.3 38.3q-5.9 5.4-11.3 11.3zm381.8-11.3q5.8 5.4 11.3 11.3l-38.2 38.2q-5.5-5.9-11.3-11.3z"/>
	</g>
</svg>