<svg version="1.2" xmlns="http://www.w3.org/2000/svg" viewBox="0 0 568 668" width="568" height="668">
	<g fill="#000000">
		<path d="m218 544c0-4.4 3.6-8 8-8h116c4.4 0 8 3.6 8 8 0 4.4-3.6 8-8 8h-116c-4.4 0-8-3.6-8-8zm0 32c0-4.4 3.6-8 8-8h116c4.4 0 8 3.6 8 8 0 4.4-3.6 8-8 8h-116c-4.4 0-8-3.6-8-8zm24 40h-16c-4.4 0-8-3.6-8-8 0-4.4 3.6-8 8-8h116c4.4 0 8 3.6 8 8 0 4.4-3.6 8-8 8h-16c0 0 0 36-42 36-42 0-42-36-42-36zm-138-332c0-99.5 80.5-180 180-180 99.5 0 180 80.5 180 180 0 114-114 146-114 212 0 24-24 24-24 24h-84c0 0-24 0-24-24 0-66-114-98-114-212z"/>
		<path stroke-width="16" stroke="#000000" stroke-linecap="round" stroke-linejoin="round" d="m19 284q0-4 0.1-8h53q-0.1 4-0.1 8 0 4 0.1 8h-53q-0.1-4-0.1-8zm265-265q4 0 8 0.1v53q-4-0.1-8-0.1-4 0-8 0.1v-53q4-0.1 8-0.1zm265 265q0 4-0.1 8h-53q0.1-4 0.1-8 0-4-0.1-8h53q0.1 4 0.1 8zm-458-181.7q5.5-5.8 11.3-11.3l37.5 37.5q-5.9 5.4-11.3 11.3zm374.7-11.3q5.9 5.5 11.3 11.3l-37.5 37.5q-5.4-5.9-11.3-11.3z"/>
	</g>
</svg>