<svg version="1.2" xmlns="http://www.w3.org/2000/svg" viewBox="0 0 588 652" width="588" height="652">
	<g fill="#000000">
		<path d="m114 294c0-99.5 80.5-180 180-180 99.5 0 180 80.5 180 180 0 114-114 146-114 212 0 24 0 24 0 24h-132c0 0 0 0 0-24 0-66-114-98-114-212z"/>
		<path d="m360 546v74c0 8.8-7.2 16-16 16h-100c-8.8 0-16-7.2-16-16v-74"/>
		<path stroke-width="16" stroke="#000000" stroke-linecap="round" stroke-linejoin="round" d="m24 294q0-4 0.1-8h54q-0.1 4-0.1 8 0 4 0.1 8h-54q-0.1-4-0.1-8zm270-270q4 0 8 0.1v54q-4-0.1-8-0.1-4 0-8 0.1v-54q4-0.1 8-0.1zm270 270q0 4-0.1 8h-54q0.1-4 0.1-8 0-4-0.1-8h54q0.1 4 0.1 8zm-466.6-185.3q5.5-5.8 11.3-11.3l38.3 38.3q-5.9 5.4-11.3 11.3zm381.8-11.3q5.8 5.4 11.3 11.3l-38.2 38.2q-5.5-5.9-11.3-11.3z"/>
	</g>
</svg>