<svg version="1.2" xmlns="http://www.w3.org/2000/svg" viewBox="0 0 512 512" width="512" height="512">
	<path fill="#000000" d="m16 256c0-132.7 107.3-240 240-240 132.7 0 240 107.3 240 240 0 66.4-26.8 126.4-70.2 169.8l70.2 70.2h-240c-132.7 0-240-107.3-240-240z"/>
	<g fill="#FFFFFF">
		<path d="m184 239.6c0-39.8 32.2-72 72-72 39.8 0 72 32.2 72 72 0 45.6-45.6 58.4-45.6 84.8 0 9.6 0 9.6 0 9.6h-52.8c0 0 0 0 0-9.6 0-26.4-45.6-39.2-45.6-84.8z"/>
		<path d="m282.4 340.4v29.6c0 3.5-2.9 6.4-6.4 6.4h-40c-3.5 0-6.4-2.9-6.4-6.4v-29.6"/>
		<path stroke-width="8" stroke="#FFFFFF" stroke-linecap="round" stroke-linejoin="round" d="m152 239.6q0-1.6 0-3.2h19.3q-0.1 1.6-0.1 3.2 0 1.6 0.1 3.2h-19.3q0-1.6 0-3.2zm104-104q1.6 0 3.2 0v19.3q-1.6-0.1-3.2-0.1-1.6 0-3.2 0.1v-19.3q1.6 0 3.2 0zm104 104q0 1.6 0 3.2h-19.3q0.1-1.6 0.1-3.2 0-1.6-0.1-3.2h19.3q0 1.6 0 3.2zm-179.8-71.3q2.2-2.3 4.5-4.5l13.6 13.6q-2.3 2.2-4.5 4.5zm147.1-4.5q2.3 2.2 4.5 4.5l-13.6 13.6q-2.2-2.3-4.5-4.5z"/>
	</g>
</svg>