<svg version="1.2" xmlns="http://www.w3.org/2000/svg" viewBox="0 0 400 463" width="400" height="463">
	<path fill="#000000" d="m169 385.5c-92.3-15.6-157.2-99.3-149.3-192.5 7.8-93.3 85.7-165 179.3-165 93.6 0 171.6 71.7 179.3 165 7.9 93.2-57.1 176.9-149.3 192.5q2 8.3 6 15.6c2.7 4.9 6.1 9.4 10.1 13.4 3.9 3.9 8.4 7.3 13.3 10q7.3 4.2 15.6 6c-9.9 2.9-20.3 4.1-30.6 3.4-10.3-0.6-20.4-3-29.9-7.1-9.5-4.1-18.3-9.7-25.8-16.8-7.6-7-13.9-15.3-18.7-24.5z"/>
	<path fill="#FFFFFF" d="m173.4 263.6l-25.6-115.2c-12-72 114.4-72 102.4 0l-25.6 115.2zm0 9.6h51.2v30.4c0 24-51.2 24-51.2 0z"/>
	<g stroke-width="16" stroke="#FFFFFF" stroke-linecap="round" stroke-linejoin="round">
		<path d="m100.5 130.9l16.6 9.5"/>
		<path d="m90.8 178.9h19.2"/>
		<path d="m100.5 226.9l16.6-9.6"/>
		<path d="m281.3 140.5l16.6-9.6"/>
		<path d="m287.7 178.9h19.1"/>
		<path d="m281.3 217.3l16.6 9.6"/>
	</g>
</svg>