<svg version="1.2" xmlns="http://www.w3.org/2000/svg" viewBox="0 0 1504 800" width="1504" height="800">
	<path fill="#000000" d="m208 592c-106.2 0-192-85.8-192-192 0-106.2 85.8-192 192-192 49.2 0 94.1 18.4 128 48.8v-48.8h64v576h-64v-240.8c-33.9 30.4-78.8 48.8-128 48.8zm128-192c0-70.8-57.2-128-128-128-70.8 0-128 57.2-128 128 0 70.8 57.2 128 128 128 70.8 0 128-57.2 128-128zm320 192c-88.1 0-159.5-71-160-159v-225h64v225c0.5 52.6 43.2 95 96 95 52.8 0 95.5-42.4 96-95v-225h64v225c-0.5 88-71.9 159-160 159zm272-384h64v384h-64zm32-96c-26.5 0-48-21.5-48-48 0-26.5 21.5-48 48-48 26.5 0 48 21.5 48 48 0 26.5-21.5 48-48 48zm208 431.2v240.8h-64v-576h64v48.8c33.9-30.4 78.8-48.8 128-48.8 106.2 0 192 85.8 192 192 0 106.2-85.8 192-192 192-49.2 0-94.1-18.4-128-48.8zm128-15.2c70.8 0 128-57.2 128-128 0-70.8-57.2-128-128-128-70.8 0-128 57.2-128 128 0 70.8 57.2 128 128 128z"/>
</svg>