<svg version="1.2" xmlns="http://www.w3.org/2000/svg" viewBox="0 0 1344 448" width="1344" height="448">
	<path fill="#000000" d="m16 240c0-106.2 85.8-192 192-192 106.2 0 192 85.8 192 192 0 53.1-21.5 101.1-56.2 135.8l56.2 56.2h-192c-106.2 0-192-85.8-192-192z"/>
	<g fill="#FFFFFF">
		<path d="m150.4 226.9c0-31.9 25.7-57.6 57.6-57.6 31.9 0 57.6 25.7 57.6 57.6 0 29.3-36.5 46.7-36.5 67.8 0 7.7 0 7.7 0 7.7h-42.2c0 0 0 0 0-7.7 0-21.1-36.5-31.3-36.5-67.8z"/>
		<path d="m229.1 307.5v23.7c0 2.8-2.3 5.1-5.1 5.1h-32c-2.8 0-5.1-2.3-5.1-5.1v-23.7"/>
		<path stroke-width="8" stroke="#FFFFFF" stroke-linecap="round" stroke-linejoin="round" d="m275.8 229.4v-5.1h15.4v5.1zm-135.7-5.1v5.1h-15.3v-5.1zm70.4-65.3h-5.2v-15.3h5.2zm-48.7 18.3l-3.7 3.6-10.9-11.1 3.7-3.6zm95.9 3.6l-3.6-3.6 10.8-10.9 3.6 3.6z"/>
	</g>
	<path fill="#000000" d="m688 304c-53.1 0-96-42.9-96-96 0-53.1 42.9-96 96-96 24.6 0 47 9.2 64 24.4v-24.4h32v288h-32v-120.4c-17 15.2-39.4 24.4-64 24.4zm64-96c0-35.4-28.6-64-64-64-35.4 0-64 28.6-64 64 0 35.4 28.6 64 64 64 35.4 0 64-28.6 64-64zm160 96c-44.1 0-79.7-35.5-80-79.5v-112.5h32v112.5c0.3 26.3 21.6 47.5 48 47.5 26.4 0 47.7-21.2 48-47.5v-112.5h32v112.5c-0.3 44-35.9 79.5-80 79.5zm136-192h32v192h-32zm16-48c-13.3 0-24-10.7-24-24 0-13.3 10.7-24 24-24 13.3 0 24 10.7 24 24 0 13.3-10.7 24-24 24zm104 215.6v120.4h-32v-288h32v24.4c17-15.2 39.4-24.4 64-24.4 53.1 0 96 42.9 96 96 0 53.1-42.9 96-96 96-24.6 0-47-9.2-64-24.4zm64-7.6c35.4 0 64-28.6 64-64 0-35.4-28.6-64-64-64-35.4 0-64 28.6-64 64 0 35.4 28.6 64 64 64z"/>
</svg>