<svg version="1.2" xmlns="http://www.w3.org/2000/svg" viewBox="0 0 911 482" width="911" height="482">
	<path fill="#000000" stroke-width="30" stroke="#000000" d="m136 121c38.2 0 71.6 20.3 90 50.8v-50.8h15v330h-15v-170.8c-18.4 30.5-51.8 50.8-90 50.8-58.1 0-105-46.9-105-105 0-58.1 46.9-105 105-105zm-90 105c0 49.8 40.2 90 90 90 49.8 0 90-40.2 90-90 0-49.8-40.2-90-90-90-49.8 0-90 40.2-90 90zm288 15c0 41.5 33.5 75 75 75 41.5 0 75-33.5 75-75v-15-105h15v120c0 49.8-40.2 90-90 90-49.8 0-90-40.2-90-90v-15-105h15zm243-120h15v210h-15zm7.5-60c-8.3 0-15-6.7-15-15 0-8.3 6.7-15 15-15 8.3 0 15 6.7 15 15 0 8.3-6.7 15-15 15zm295.5 165c0 58.1-46.9 105-105 105-38.2 0-71.6-20.3-90-50.8v170.8h-15v-330h15v50.8c18.4-30.5 51.8-50.8 90-50.8 58.1 0 105 46.9 105 105zm-15 0c0-49.8-40.2-90-90-90-49.8 0-90 40.2-90 90 0 49.8 40.2 90 90 90 49.8 0 90-40.2 90-90z"/>
</svg>