<svg version="1.2" xmlns="http://www.w3.org/2000/svg" viewBox="0 0 1522 454" width="1522" height="454">
	<path fill="#000000" d="m208 438c-106.2 0-192-85.8-192-192 0-106.2 85.8-192 192-192 106.2 0 192 85.8 192 192 0 53.1-21.4 101.1-56.2 135.8 56.2 56.2 56.2 56.2 56.2 56.2 0 0-157 0-192 0z"/>
	<path fill="#FFFFFF" d="m150.4 228.7c0-31.8 25.8-57.6 57.6-57.6 31.8 0 57.6 25.8 57.6 57.6 0 29.3-36.5 46.7-36.5 67.9 0 7.6 0 7.6 0 7.6h-42.2c0 0 0 0 0-7.6 0-21.2-36.5-31.4-36.5-67.9zm78.7 104.3c0 2.9-2.3 5.2-5.1 5.2h-7.7c0 0 0 8.3-8.3 8.3-8.3 0-8.3-8.3-8.3-8.3h-7.7c-2.8 0-5.1-2.3-5.1-5.2v-23.6h42.2z"/>
	<path fill="#FFFFFF" stroke-width="8" stroke="#FFFFFF" stroke-linecap="round" stroke-linejoin="round" d="m275.8 226.2h15.4v5.1h-15.4zm-151 0h15.4v5.1h-15.4zm80.6-80.6h5.2v15.3h-5.2zm-43.6 33.8l-3.6 3.5-10.9-11.1 3.7-3.6zm95.9 3.6l-3.6-3.6 10.8-10.9 3.7 3.6z"/>
	<path fill="#000000" d="m794.2 299.2c-20.5 25-50.7 41.4-85 41.4-64 0-116.7-54.8-116.7-117.7 0-64 52.7-116.8 116.7-116.8 34.3 0 64.5 15.9 85 40.5v-36.9h34.3v327.7h-34.3zm-2-76.4c0-45.5-39.5-82.9-84-82.9-45.6 0-79.9 37.4-79.9 82.9 0 44.6 34.3 84 79.9 84 44.5 0 84-39.4 84-84zm300.5 112.2h-34.3v-27.2c-17.9 19.5-43 30.7-73.7 30.7-64.5 0-92.2-28.6-92.2-100.3v-128.5h34.3v128.5c0 44.5 20.5 66.6 57.9 66.6 45.5 0 73.7-25.6 73.7-75.3v-119.8h34.3zm66.6-295.5c0-12.3 10.7-23.5 24.5-23.5 12.8 0 24.1 11.2 24.1 23.5 0 13.8-11.3 24.6-24.1 24.6-13.8 0-24.5-10.8-24.5-24.6zm7.1 70.2h35.9v225.2h-35.9zm339 113c0 63-52.8 117.8-116.8 117.8-34.3 0-64.5-16.4-85-41.5v138.3h-34.3v-327.7h34.3v36.8c20.5-24.5 50.7-40.4 85-40.4 64 0 116.8 52.7 116.8 116.7zm-35.9 0c0-45.5-34.3-82.9-79.8-82.9-44.6 0-84 37.4-84 82.9 0 44.6 39.4 84 84 84 45.5 0 79.8-39.4 79.8-84z"/>
</svg>